<?xml version="1.0" encoding="UTF-8" standalone="no"?>
<!DOCTYPE svg PUBLIC "-//W3C//DTD SVG 1.1//EN"
 "http://www.w3.org/Graphics/SVG/1.1/DTD/svg11.dtd">
<!-- Generated by graphviz version 2.43.0 (0)
 -->
<!-- Title: models_diagram Pages: 1 -->
<svg width="612pt" height="100pt"
 viewBox="0.00 0.00 611.54 100.00" xmlns="http://www.w3.org/2000/svg" xmlns:xlink="http://www.w3.org/1999/xlink">
<g id="graph0" class="graph" transform="scale(1 1) rotate(0) translate(4 96)">
<title>models_diagram</title>
<polygon fill="transparent" stroke="transparent" points="-4,4 -4,-96 607.54,-96 607.54,4 -4,4"/>
<!-- ApplicationRecord -->
<g id="node1" class="node">
<title>ApplicationRecord</title>
<ellipse fill="none" stroke="black" cx="95.54" cy="-46" rx="95.58" ry="18"/>
<text text-anchor="middle" x="95.54" y="-42.3" font-family="Times,serif" font-size="14.00">ApplicationRecord</text>
</g>
<!-- Comment -->
<g id="node2" class="node">
<title>Comment</title>
<path fill="none" stroke="black" d="M221.54,-0.5C221.54,-0.5 385.54,-0.5 385.54,-0.5 391.54,-0.5 397.54,-6.5 397.54,-12.5 397.54,-12.5 397.54,-79.5 397.54,-79.5 397.54,-85.5 391.54,-91.5 385.54,-91.5 385.54,-91.5 221.54,-91.5 221.54,-91.5 215.54,-91.5 209.54,-85.5 209.54,-79.5 209.54,-79.5 209.54,-12.5 209.54,-12.5 209.54,-6.5 215.54,-0.5 221.54,-0.5"/>
<text text-anchor="middle" x="303.54" y="-76.3" font-family="Times,serif" font-size="14.00">Comment</text>
<polyline fill="none" stroke="black" points="209.54,-68.5 397.54,-68.5 "/>
<text text-anchor="start" x="217.54" y="-53.3" font-family="Times,serif" font-size="14.00">id :integer</text>
<text text-anchor="start" x="217.54" y="-38.3" font-family="Times,serif" font-size="14.00">ticket_id :integer</text>
<text text-anchor="start" x="217.54" y="-23.3" font-family="Times,serif" font-size="14.00">created_at :datetime(6)</text>
<text text-anchor="start" x="217.54" y="-8.3" font-family="Times,serif" font-size="14.00">updated_at :datetime(6)</text>
</g>
<!-- Ticket -->
<g id="node3" class="node">
<title>Ticket</title>
<path fill="none" stroke="black" d="M427.54,-0.5C427.54,-0.5 591.54,-0.5 591.54,-0.5 597.54,-0.5 603.54,-6.5 603.54,-12.5 603.54,-12.5 603.54,-79.5 603.54,-79.5 603.54,-85.5 597.54,-91.5 591.54,-91.5 591.54,-91.5 427.54,-91.5 427.54,-91.5 421.54,-91.5 415.54,-85.5 415.54,-79.5 415.54,-79.5 415.54,-12.5 415.54,-12.5 415.54,-6.5 421.54,-0.5 427.54,-0.5"/>
<text text-anchor="middle" x="509.54" y="-76.3" font-family="Times,serif" font-size="14.00">Ticket</text>
<polyline fill="none" stroke="black" points="415.54,-68.5 603.54,-68.5 "/>
<text text-anchor="start" x="423.54" y="-53.3" font-family="Times,serif" font-size="14.00">id :integer</text>
<text text-anchor="start" x="423.54" y="-38.3" font-family="Times,serif" font-size="14.00">title :varchar</text>
<text text-anchor="start" x="423.54" y="-23.3" font-family="Times,serif" font-size="14.00">created_at :datetime(6)</text>
<text text-anchor="start" x="423.54" y="-8.3" font-family="Times,serif" font-size="14.00">updated_at :datetime(6)</text>
</g>
</g>
</svg>
