<?xml version="1.0" encoding="UTF-8" standalone="no"?>
<!DOCTYPE svg PUBLIC "-//W3C//DTD SVG 1.1//EN"
 "http://www.w3.org/Graphics/SVG/1.1/DTD/svg11.dtd">
<!-- Generated by graphviz version 2.43.0 (0)
 -->
<!-- Title: controllers_diagram Pages: 1 -->
<svg width="1362pt" height="1168pt"
 viewBox="0.00 0.00 1362.00 1168.00" xmlns="http://www.w3.org/2000/svg" xmlns:xlink="http://www.w3.org/1999/xlink">
<g id="graph0" class="graph" transform="scale(1 1) rotate(0) translate(4 1164)">
<title>controllers_diagram</title>
<polygon fill="transparent" stroke="transparent" points="-4,4 -4,-1164 1358,-1164 1358,4 -4,4"/>
<!-- _diagram_info -->
<g id="node1" class="node">
<title>_diagram_info</title>
<text text-anchor="start" x="528" y="-63.6" font-family="Times,serif" font-size="13.00">Controllers diagram</text>
<text text-anchor="start" x="528" y="-49.6" font-family="Times,serif" font-size="13.00">Date: Mar 02 2021 &#45; 17:06</text>
<text text-anchor="start" x="528" y="-35.6" font-family="Times,serif" font-size="13.00">Migration version: 20210104160035</text>
<text text-anchor="start" x="528" y="-21.6" font-family="Times,serif" font-size="13.00">Generated by RailRoady 1.5.3</text>
<text text-anchor="start" x="528" y="-7.6" font-family="Times,serif" font-size="13.00">http://railroady.prestonlee.com</text>
</g>
<!-- ApplicationController -->
<g id="node2" class="node">
<title>ApplicationController</title>
<path fill="none" stroke="black" d="M420.73,-533.52C420.73,-533.52 566.73,-533.52 566.73,-533.52 572.73,-533.52 578.73,-539.52 578.73,-545.52 578.73,-545.52 578.73,-614.52 578.73,-614.52 578.73,-620.52 572.73,-626.52 566.73,-626.52 566.73,-626.52 420.73,-626.52 420.73,-626.52 414.73,-626.52 408.73,-620.52 408.73,-614.52 408.73,-614.52 408.73,-545.52 408.73,-545.52 408.73,-539.52 414.73,-533.52 420.73,-533.52"/>
<text text-anchor="middle" x="493.73" y="-611.32" font-family="Times,serif" font-size="14.00">ApplicationController</text>
<polyline fill="none" stroke="black" points="408.73,-603.52 578.73,-603.52 "/>
<polyline fill="none" stroke="black" points="408.73,-579.52 578.73,-579.52 "/>
<text text-anchor="start" x="416.73" y="-564.32" font-family="Times,serif" font-size="14.00">_layout_from_proc</text>
<polyline fill="none" stroke="black" points="408.73,-556.52 578.73,-556.52 "/>
<text text-anchor="start" x="416.73" y="-541.32" font-family="Times,serif" font-size="14.00">_layout</text>
</g>
<!-- CommentsController -->
<g id="node3" class="node">
<title>CommentsController</title>
<path fill="none" stroke="black" d="M526.68,-647.49C526.68,-647.49 668.68,-647.49 668.68,-647.49 674.68,-647.49 680.68,-653.49 680.68,-659.49 680.68,-659.49 680.68,-772.49 680.68,-772.49 680.68,-778.49 674.68,-784.49 668.68,-784.49 668.68,-784.49 526.68,-784.49 526.68,-784.49 520.68,-784.49 514.68,-778.49 514.68,-772.49 514.68,-772.49 514.68,-659.49 514.68,-659.49 514.68,-653.49 520.68,-647.49 526.68,-647.49"/>
<text text-anchor="middle" x="597.68" y="-769.29" font-family="Times,serif" font-size="14.00">CommentsController</text>
<polyline fill="none" stroke="black" points="514.68,-761.49 680.68,-761.49 "/>
<text text-anchor="start" x="522.68" y="-746.29" font-family="Times,serif" font-size="14.00">create</text>
<text text-anchor="start" x="522.68" y="-731.29" font-family="Times,serif" font-size="14.00">new</text>
<polyline fill="none" stroke="black" points="514.68,-723.49 680.68,-723.49 "/>
<text text-anchor="start" x="522.68" y="-708.29" font-family="Times,serif" font-size="14.00">_layout_from_proc</text>
<polyline fill="none" stroke="black" points="514.68,-700.49 680.68,-700.49 "/>
<text text-anchor="start" x="522.68" y="-685.29" font-family="Times,serif" font-size="14.00">_layout</text>
<text text-anchor="start" x="522.68" y="-670.29" font-family="Times,serif" font-size="14.00">comment_params</text>
<text text-anchor="start" x="522.68" y="-655.29" font-family="Times,serif" font-size="14.00">set_ticket</text>
</g>
<!-- ApplicationController&#45;&gt;CommentsController -->
<g id="edge1" class="edge">
<title>ApplicationController&#45;&gt;CommentsController</title>
<path fill="none" stroke="black" d="M529.5,-626.81C534.55,-633.42 539.83,-640.32 545.12,-647.23"/>
</g>
<!-- TicketsController -->
<g id="node4" class="node">
<title>TicketsController</title>
<path fill="none" stroke="black" d="M376,-312.5C376,-312.5 498,-312.5 498,-312.5 504,-312.5 510,-318.5 510,-324.5 510,-324.5 510,-512.5 510,-512.5 510,-518.5 504,-524.5 498,-524.5 498,-524.5 376,-524.5 376,-524.5 370,-524.5 364,-518.5 364,-512.5 364,-512.5 364,-324.5 364,-324.5 364,-318.5 370,-312.5 376,-312.5"/>
<text text-anchor="middle" x="437" y="-509.3" font-family="Times,serif" font-size="14.00">TicketsController</text>
<polyline fill="none" stroke="black" points="364,-501.5 510,-501.5 "/>
<text text-anchor="start" x="372" y="-486.3" font-family="Times,serif" font-size="14.00">create</text>
<text text-anchor="start" x="372" y="-471.3" font-family="Times,serif" font-size="14.00">destroy</text>
<text text-anchor="start" x="372" y="-456.3" font-family="Times,serif" font-size="14.00">edit</text>
<text text-anchor="start" x="372" y="-441.3" font-family="Times,serif" font-size="14.00">index</text>
<text text-anchor="start" x="372" y="-426.3" font-family="Times,serif" font-size="14.00">new</text>
<text text-anchor="start" x="372" y="-411.3" font-family="Times,serif" font-size="14.00">show</text>
<text text-anchor="start" x="372" y="-396.3" font-family="Times,serif" font-size="14.00">update</text>
<polyline fill="none" stroke="black" points="364,-388.5 510,-388.5 "/>
<text text-anchor="start" x="372" y="-373.3" font-family="Times,serif" font-size="14.00">_layout_from_proc</text>
<polyline fill="none" stroke="black" points="364,-365.5 510,-365.5 "/>
<text text-anchor="start" x="372" y="-350.3" font-family="Times,serif" font-size="14.00">_layout</text>
<text text-anchor="start" x="372" y="-335.3" font-family="Times,serif" font-size="14.00">set_ticket</text>
<text text-anchor="start" x="372" y="-320.3" font-family="Times,serif" font-size="14.00">ticket_params</text>
</g>
<!-- ApplicationController&#45;&gt;TicketsController -->
<g id="edge2" class="edge">
<title>ApplicationController&#45;&gt;TicketsController</title>
<path fill="none" stroke="black" d="M477.32,-533.3C476.34,-530.5 475.34,-527.64 474.31,-524.73"/>
</g>
<!-- ActiveStorage::DirectUploadsController -->
<g id="node5" class="node">
<title>ActiveStorage::DirectUploadsController</title>
<path fill="none" stroke="black" d="M116,-130.5C116,-130.5 394,-130.5 394,-130.5 400,-130.5 406,-136.5 406,-142.5 406,-142.5 406,-240.5 406,-240.5 406,-246.5 400,-252.5 394,-252.5 394,-252.5 116,-252.5 116,-252.5 110,-252.5 104,-246.5 104,-240.5 104,-240.5 104,-142.5 104,-142.5 104,-136.5 110,-130.5 116,-130.5"/>
<text text-anchor="middle" x="255" y="-237.3" font-family="Times,serif" font-size="14.00">ActiveStorage::DirectUploadsController</text>
<polyline fill="none" stroke="black" points="104,-229.5 406,-229.5 "/>
<text text-anchor="start" x="112" y="-214.3" font-family="Times,serif" font-size="14.00">create</text>
<polyline fill="none" stroke="black" points="104,-206.5 406,-206.5 "/>
<text text-anchor="start" x="112" y="-191.3" font-family="Times,serif" font-size="14.00">_layout_from_proc</text>
<polyline fill="none" stroke="black" points="104,-183.5 406,-183.5 "/>
<text text-anchor="start" x="112" y="-168.3" font-family="Times,serif" font-size="14.00">_layout</text>
<text text-anchor="start" x="112" y="-153.3" font-family="Times,serif" font-size="14.00">blob_args</text>
<text text-anchor="start" x="112" y="-138.3" font-family="Times,serif" font-size="14.00">direct_upload_json</text>
</g>
<!-- ActiveStorage::BaseController -->
<g id="node6" class="node">
<title>ActiveStorage::BaseController</title>
<path fill="none" stroke="black" d="M12,-1066.5C12,-1066.5 221,-1066.5 221,-1066.5 227,-1066.5 233,-1072.5 233,-1078.5 233,-1078.5 233,-1147.5 233,-1147.5 233,-1153.5 227,-1159.5 221,-1159.5 221,-1159.5 12,-1159.5 12,-1159.5 6,-1159.5 0,-1153.5 0,-1147.5 0,-1147.5 0,-1078.5 0,-1078.5 0,-1072.5 6,-1066.5 12,-1066.5"/>
<text text-anchor="middle" x="116.5" y="-1144.3" font-family="Times,serif" font-size="14.00">ActiveStorage::BaseController</text>
<polyline fill="none" stroke="black" points="0,-1136.5 233,-1136.5 "/>
<polyline fill="none" stroke="black" points="0,-1112.5 233,-1112.5 "/>
<text text-anchor="start" x="8" y="-1097.3" font-family="Times,serif" font-size="14.00">_layout_from_proc</text>
<polyline fill="none" stroke="black" points="0,-1089.5 233,-1089.5 "/>
<text text-anchor="start" x="8" y="-1074.3" font-family="Times,serif" font-size="14.00">_layout</text>
</g>
<!-- ActiveStorage::DiskController -->
<g id="node7" class="node">
<title>ActiveStorage::DiskController</title>
<path fill="none" stroke="black" d="M142,-598.5C142,-598.5 348,-598.5 348,-598.5 354,-598.5 360,-604.5 360,-610.5 360,-610.5 360,-768.5 360,-768.5 360,-774.5 354,-780.5 348,-780.5 348,-780.5 142,-780.5 142,-780.5 136,-780.5 130,-774.5 130,-768.5 130,-768.5 130,-610.5 130,-610.5 130,-604.5 136,-598.5 142,-598.5"/>
<text text-anchor="middle" x="245" y="-765.3" font-family="Times,serif" font-size="14.00">ActiveStorage::DiskController</text>
<polyline fill="none" stroke="black" points="130,-757.5 360,-757.5 "/>
<text text-anchor="start" x="138" y="-742.3" font-family="Times,serif" font-size="14.00">show</text>
<text text-anchor="start" x="138" y="-727.3" font-family="Times,serif" font-size="14.00">update</text>
<polyline fill="none" stroke="black" points="130,-719.5 360,-719.5 "/>
<text text-anchor="start" x="138" y="-704.3" font-family="Times,serif" font-size="14.00">_layout_from_proc</text>
<polyline fill="none" stroke="black" points="130,-696.5 360,-696.5 "/>
<text text-anchor="start" x="138" y="-681.3" font-family="Times,serif" font-size="14.00">_layout</text>
<text text-anchor="start" x="138" y="-666.3" font-family="Times,serif" font-size="14.00">acceptable_content?</text>
<text text-anchor="start" x="138" y="-651.3" font-family="Times,serif" font-size="14.00">decode_verified_key</text>
<text text-anchor="start" x="138" y="-636.3" font-family="Times,serif" font-size="14.00">decode_verified_token</text>
<text text-anchor="start" x="138" y="-621.3" font-family="Times,serif" font-size="14.00">disk_service</text>
<text text-anchor="start" x="138" y="-606.3" font-family="Times,serif" font-size="14.00">serve_file</text>
</g>
<!-- ActiveStorage::BlobsController -->
<g id="node8" class="node">
<title>ActiveStorage::BlobsController</title>
<path fill="none" stroke="black" d="M1078,-208.5C1078,-208.5 1293,-208.5 1293,-208.5 1299,-208.5 1305,-214.5 1305,-220.5 1305,-220.5 1305,-288.5 1305,-288.5 1305,-294.5 1299,-300.5 1293,-300.5 1293,-300.5 1078,-300.5 1078,-300.5 1072,-300.5 1066,-294.5 1066,-288.5 1066,-288.5 1066,-220.5 1066,-220.5 1066,-214.5 1072,-208.5 1078,-208.5"/>
<text text-anchor="middle" x="1185.5" y="-285.3" font-family="Times,serif" font-size="14.00">ActiveStorage::BlobsController</text>
<polyline fill="none" stroke="black" points="1066,-277.5 1305,-277.5 "/>
<text text-anchor="start" x="1074" y="-262.3" font-family="Times,serif" font-size="14.00">show</text>
<polyline fill="none" stroke="black" points="1066,-254.5 1305,-254.5 "/>
<text text-anchor="start" x="1074" y="-239.3" font-family="Times,serif" font-size="14.00">_layout_from_proc</text>
<polyline fill="none" stroke="black" points="1066,-231.5 1305,-231.5 "/>
<text text-anchor="start" x="1074" y="-216.3" font-family="Times,serif" font-size="14.00">_layout</text>
</g>
<!-- ActiveStorage::RepresentationsController -->
<g id="node9" class="node">
<title>ActiveStorage::RepresentationsController</title>
<path fill="none" stroke="black" d="M610,-1014.5C610,-1014.5 902,-1014.5 902,-1014.5 908,-1014.5 914,-1020.5 914,-1026.5 914,-1026.5 914,-1094.5 914,-1094.5 914,-1100.5 908,-1106.5 902,-1106.5 902,-1106.5 610,-1106.5 610,-1106.5 604,-1106.5 598,-1100.5 598,-1094.5 598,-1094.5 598,-1026.5 598,-1026.5 598,-1020.5 604,-1014.5 610,-1014.5"/>
<text text-anchor="middle" x="756" y="-1091.3" font-family="Times,serif" font-size="14.00">ActiveStorage::RepresentationsController</text>
<polyline fill="none" stroke="black" points="598,-1083.5 914,-1083.5 "/>
<text text-anchor="start" x="606" y="-1068.3" font-family="Times,serif" font-size="14.00">show</text>
<polyline fill="none" stroke="black" points="598,-1060.5 914,-1060.5 "/>
<text text-anchor="start" x="606" y="-1045.3" font-family="Times,serif" font-size="14.00">_layout_from_proc</text>
<polyline fill="none" stroke="black" points="598,-1037.5 914,-1037.5 "/>
<text text-anchor="start" x="606" y="-1022.3" font-family="Times,serif" font-size="14.00">_layout</text>
</g>
<!-- ActionMailbox::BaseController -->
<g id="node10" class="node">
<title>ActionMailbox::BaseController</title>
<path fill="none" stroke="black" d="M90,-390.5C90,-390.5 301,-390.5 301,-390.5 307,-390.5 313,-396.5 313,-402.5 313,-402.5 313,-531.5 313,-531.5 313,-537.5 307,-543.5 301,-543.5 301,-543.5 90,-543.5 90,-543.5 84,-543.5 78,-537.5 78,-531.5 78,-531.5 78,-402.5 78,-402.5 78,-396.5 84,-390.5 90,-390.5"/>
<text text-anchor="middle" x="195.5" y="-528.3" font-family="Times,serif" font-size="14.00">ActionMailbox::BaseController</text>
<polyline fill="none" stroke="black" points="78,-520.5 313,-520.5 "/>
<polyline fill="none" stroke="black" points="78,-496.5 313,-496.5 "/>
<text text-anchor="start" x="86" y="-481.3" font-family="Times,serif" font-size="14.00">_layout_from_proc</text>
<polyline fill="none" stroke="black" points="78,-473.5 313,-473.5 "/>
<text text-anchor="start" x="86" y="-458.3" font-family="Times,serif" font-size="14.00">_layout</text>
<text text-anchor="start" x="86" y="-443.3" font-family="Times,serif" font-size="14.00">authenticate_by_password</text>
<text text-anchor="start" x="86" y="-428.3" font-family="Times,serif" font-size="14.00">ensure_configured</text>
<text text-anchor="start" x="86" y="-413.3" font-family="Times,serif" font-size="14.00">ingress_name</text>
<text text-anchor="start" x="86" y="-398.3" font-family="Times,serif" font-size="14.00">password</text>
</g>
<!-- ActionMailbox::Ingresses::Postmark::InboundEmailsController -->
<g id="node11" class="node">
<title>ActionMailbox::Ingresses::Postmark::InboundEmailsController</title>
<path fill="none" stroke="black" d="M558,-286.5C558,-286.5 996,-286.5 996,-286.5 1002,-286.5 1008,-292.5 1008,-298.5 1008,-298.5 1008,-366.5 1008,-366.5 1008,-372.5 1002,-378.5 996,-378.5 996,-378.5 558,-378.5 558,-378.5 552,-378.5 546,-372.5 546,-366.5 546,-366.5 546,-298.5 546,-298.5 546,-292.5 552,-286.5 558,-286.5"/>
<text text-anchor="middle" x="777" y="-363.3" font-family="Times,serif" font-size="14.00">ActionMailbox::Ingresses::Postmark::InboundEmailsController</text>
<polyline fill="none" stroke="black" points="546,-355.5 1008,-355.5 "/>
<text text-anchor="start" x="554" y="-340.3" font-family="Times,serif" font-size="14.00">create</text>
<polyline fill="none" stroke="black" points="546,-332.5 1008,-332.5 "/>
<text text-anchor="start" x="554" y="-317.3" font-family="Times,serif" font-size="14.00">_layout_from_proc</text>
<polyline fill="none" stroke="black" points="546,-309.5 1008,-309.5 "/>
<text text-anchor="start" x="554" y="-294.3" font-family="Times,serif" font-size="14.00">_layout</text>
</g>
<!-- ActionMailbox::Ingresses::Mandrill::InboundEmailsController -->
<g id="node12" class="node">
<title>ActionMailbox::Ingresses::Mandrill::InboundEmailsController</title>
<path fill="none" stroke="black" d="M636,-416.5C636,-416.5 1067,-416.5 1067,-416.5 1073,-416.5 1079,-422.5 1079,-428.5 1079,-428.5 1079,-586.5 1079,-586.5 1079,-592.5 1073,-598.5 1067,-598.5 1067,-598.5 636,-598.5 636,-598.5 630,-598.5 624,-592.5 624,-586.5 624,-586.5 624,-428.5 624,-428.5 624,-422.5 630,-416.5 636,-416.5"/>
<text text-anchor="middle" x="851.5" y="-583.3" font-family="Times,serif" font-size="14.00">ActionMailbox::Ingresses::Mandrill::InboundEmailsController</text>
<polyline fill="none" stroke="black" points="624,-575.5 1079,-575.5 "/>
<text text-anchor="start" x="632" y="-560.3" font-family="Times,serif" font-size="14.00">create</text>
<text text-anchor="start" x="632" y="-545.3" font-family="Times,serif" font-size="14.00">health_check</text>
<polyline fill="none" stroke="black" points="624,-537.5 1079,-537.5 "/>
<text text-anchor="start" x="632" y="-522.3" font-family="Times,serif" font-size="14.00">_layout_from_proc</text>
<polyline fill="none" stroke="black" points="624,-514.5 1079,-514.5 "/>
<text text-anchor="start" x="632" y="-499.3" font-family="Times,serif" font-size="14.00">_layout</text>
<text text-anchor="start" x="632" y="-484.3" font-family="Times,serif" font-size="14.00">authenticate</text>
<text text-anchor="start" x="632" y="-469.3" font-family="Times,serif" font-size="14.00">authenticated?</text>
<text text-anchor="start" x="632" y="-454.3" font-family="Times,serif" font-size="14.00">events</text>
<text text-anchor="start" x="632" y="-439.3" font-family="Times,serif" font-size="14.00">key</text>
<text text-anchor="start" x="632" y="-424.3" font-family="Times,serif" font-size="14.00">raw_emails</text>
</g>
<!-- ActionMailbox::Ingresses::Mailgun::InboundEmailsController -->
<g id="node13" class="node">
<title>ActionMailbox::Ingresses::Mailgun::InboundEmailsController</title>
<path fill="none" stroke="black" d="M246,-832.5C246,-832.5 675,-832.5 675,-832.5 681,-832.5 687,-838.5 687,-844.5 687,-844.5 687,-957.5 687,-957.5 687,-963.5 681,-969.5 675,-969.5 675,-969.5 246,-969.5 246,-969.5 240,-969.5 234,-963.5 234,-957.5 234,-957.5 234,-844.5 234,-844.5 234,-838.5 240,-832.5 246,-832.5"/>
<text text-anchor="middle" x="460.5" y="-954.3" font-family="Times,serif" font-size="14.00">ActionMailbox::Ingresses::Mailgun::InboundEmailsController</text>
<polyline fill="none" stroke="black" points="234,-946.5 687,-946.5 "/>
<text text-anchor="start" x="242" y="-931.3" font-family="Times,serif" font-size="14.00">create</text>
<polyline fill="none" stroke="black" points="234,-923.5 687,-923.5 "/>
<text text-anchor="start" x="242" y="-908.3" font-family="Times,serif" font-size="14.00">_layout_from_proc</text>
<polyline fill="none" stroke="black" points="234,-900.5 687,-900.5 "/>
<text text-anchor="start" x="242" y="-885.3" font-family="Times,serif" font-size="14.00">_layout</text>
<text text-anchor="start" x="242" y="-870.3" font-family="Times,serif" font-size="14.00">authenticate</text>
<text text-anchor="start" x="242" y="-855.3" font-family="Times,serif" font-size="14.00">authenticated?</text>
<text text-anchor="start" x="242" y="-840.3" font-family="Times,serif" font-size="14.00">key</text>
</g>
<!-- ActionMailbox::Ingresses::Sendgrid::InboundEmailsController -->
<g id="node14" class="node">
<title>ActionMailbox::Ingresses::Sendgrid::InboundEmailsController</title>
<path fill="none" stroke="black" d="M844,-858.5C844,-858.5 1280,-858.5 1280,-858.5 1286,-858.5 1292,-864.5 1292,-870.5 1292,-870.5 1292,-938.5 1292,-938.5 1292,-944.5 1286,-950.5 1280,-950.5 1280,-950.5 844,-950.5 844,-950.5 838,-950.5 832,-944.5 832,-938.5 832,-938.5 832,-870.5 832,-870.5 832,-864.5 838,-858.5 844,-858.5"/>
<text text-anchor="middle" x="1062" y="-935.3" font-family="Times,serif" font-size="14.00">ActionMailbox::Ingresses::Sendgrid::InboundEmailsController</text>
<polyline fill="none" stroke="black" points="832,-927.5 1292,-927.5 "/>
<text text-anchor="start" x="840" y="-912.3" font-family="Times,serif" font-size="14.00">create</text>
<polyline fill="none" stroke="black" points="832,-904.5 1292,-904.5 "/>
<text text-anchor="start" x="840" y="-889.3" font-family="Times,serif" font-size="14.00">_layout_from_proc</text>
<polyline fill="none" stroke="black" points="832,-881.5 1292,-881.5 "/>
<text text-anchor="start" x="840" y="-866.3" font-family="Times,serif" font-size="14.00">_layout</text>
</g>
<!-- ActionMailbox::Ingresses::Relay::InboundEmailsController -->
<g id="node15" class="node">
<title>ActionMailbox::Ingresses::Relay::InboundEmailsController</title>
<path fill="none" stroke="black" d="M532,-130.5C532,-130.5 942,-130.5 942,-130.5 948,-130.5 954,-136.5 954,-142.5 954,-142.5 954,-225.5 954,-225.5 954,-231.5 948,-237.5 942,-237.5 942,-237.5 532,-237.5 532,-237.5 526,-237.5 520,-231.5 520,-225.5 520,-225.5 520,-142.5 520,-142.5 520,-136.5 526,-130.5 532,-130.5"/>
<text text-anchor="middle" x="737" y="-222.3" font-family="Times,serif" font-size="14.00">ActionMailbox::Ingresses::Relay::InboundEmailsController</text>
<polyline fill="none" stroke="black" points="520,-214.5 954,-214.5 "/>
<text text-anchor="start" x="528" y="-199.3" font-family="Times,serif" font-size="14.00">create</text>
<polyline fill="none" stroke="black" points="520,-191.5 954,-191.5 "/>
<text text-anchor="start" x="528" y="-176.3" font-family="Times,serif" font-size="14.00">_layout_from_proc</text>
<polyline fill="none" stroke="black" points="520,-168.5 954,-168.5 "/>
<text text-anchor="start" x="528" y="-153.3" font-family="Times,serif" font-size="14.00">_layout</text>
<text text-anchor="start" x="528" y="-138.3" font-family="Times,serif" font-size="14.00">require_valid_rfc822_message</text>
</g>
<!-- Rails::Conductor::BaseController -->
<g id="node16" class="node">
<title>Rails::Conductor::BaseController</title>
<path fill="none" stroke="black" d="M1026,-52.5C1026,-52.5 1253,-52.5 1253,-52.5 1259,-52.5 1265,-58.5 1265,-64.5 1265,-64.5 1265,-148.5 1265,-148.5 1265,-154.5 1259,-160.5 1253,-160.5 1253,-160.5 1026,-160.5 1026,-160.5 1020,-160.5 1014,-154.5 1014,-148.5 1014,-148.5 1014,-64.5 1014,-64.5 1014,-58.5 1020,-52.5 1026,-52.5"/>
<text text-anchor="middle" x="1139.5" y="-145.3" font-family="Times,serif" font-size="14.00">Rails::Conductor::BaseController</text>
<polyline fill="none" stroke="black" points="1014,-137.5 1265,-137.5 "/>
<polyline fill="none" stroke="black" points="1014,-113.5 1265,-113.5 "/>
<text text-anchor="start" x="1022" y="-98.3" font-family="Times,serif" font-size="14.00">_layout_from_proc</text>
<polyline fill="none" stroke="black" points="1014,-90.5 1265,-90.5 "/>
<text text-anchor="start" x="1022" y="-75.3" font-family="Times,serif" font-size="14.00">_layout</text>
<text text-anchor="start" x="1022" y="-60.3" font-family="Times,serif" font-size="14.00">ensure_development_env</text>
</g>
<!-- Rails::Conductor::ActionMailbox::ReroutesController -->
<g id="node17" class="node">
<title>Rails::Conductor::ActionMailbox::ReroutesController</title>
<path fill="none" stroke="black" d="M974,-988.5C974,-988.5 1342,-988.5 1342,-988.5 1348,-988.5 1354,-994.5 1354,-1000.5 1354,-1000.5 1354,-1084.5 1354,-1084.5 1354,-1090.5 1348,-1096.5 1342,-1096.5 1342,-1096.5 974,-1096.5 974,-1096.5 968,-1096.5 962,-1090.5 962,-1084.5 962,-1084.5 962,-1000.5 962,-1000.5 962,-994.5 968,-988.5 974,-988.5"/>
<text text-anchor="middle" x="1158" y="-1081.3" font-family="Times,serif" font-size="14.00">Rails::Conductor::ActionMailbox::ReroutesController</text>
<polyline fill="none" stroke="black" points="962,-1073.5 1354,-1073.5 "/>
<text text-anchor="start" x="970" y="-1058.3" font-family="Times,serif" font-size="14.00">create</text>
<polyline fill="none" stroke="black" points="962,-1050.5 1354,-1050.5 "/>
<polyline fill="none" stroke="black" points="962,-1026.5 1354,-1026.5 "/>
<text text-anchor="start" x="970" y="-1011.3" font-family="Times,serif" font-size="14.00">_layout</text>
<text text-anchor="start" x="970" y="-996.3" font-family="Times,serif" font-size="14.00">reroute</text>
</g>
<!-- Rails::Conductor::ActionMailbox::InboundEmailsController -->
<g id="node18" class="node">
<title>Rails::Conductor::ActionMailbox::InboundEmailsController</title>
<path fill="none" stroke="black" d="M740,-650.5C740,-650.5 1151,-650.5 1151,-650.5 1157,-650.5 1163,-656.5 1163,-662.5 1163,-662.5 1163,-806.5 1163,-806.5 1163,-812.5 1157,-818.5 1151,-818.5 1151,-818.5 740,-818.5 740,-818.5 734,-818.5 728,-812.5 728,-806.5 728,-806.5 728,-662.5 728,-662.5 728,-656.5 734,-650.5 740,-650.5"/>
<text text-anchor="middle" x="945.5" y="-803.3" font-family="Times,serif" font-size="14.00">Rails::Conductor::ActionMailbox::InboundEmailsController</text>
<polyline fill="none" stroke="black" points="728,-795.5 1163,-795.5 "/>
<text text-anchor="start" x="736" y="-780.3" font-family="Times,serif" font-size="14.00">create</text>
<text text-anchor="start" x="736" y="-765.3" font-family="Times,serif" font-size="14.00">index</text>
<text text-anchor="start" x="736" y="-750.3" font-family="Times,serif" font-size="14.00">new</text>
<text text-anchor="start" x="736" y="-735.3" font-family="Times,serif" font-size="14.00">show</text>
<polyline fill="none" stroke="black" points="728,-727.5 1163,-727.5 "/>
<polyline fill="none" stroke="black" points="728,-703.5 1163,-703.5 "/>
<text text-anchor="start" x="736" y="-688.3" font-family="Times,serif" font-size="14.00">_layout</text>
<text text-anchor="start" x="736" y="-673.3" font-family="Times,serif" font-size="14.00">create_inbound_email</text>
<text text-anchor="start" x="736" y="-658.3" font-family="Times,serif" font-size="14.00">new_mail</text>
</g>
<!-- Turbo::Native::NavigationController -->
<g id="node19" class="node">
<title>Turbo::Native::NavigationController</title>
<path fill="none" stroke="black" d="M298,-1014.5C298,-1014.5 549,-1014.5 549,-1014.5 555,-1014.5 561,-1020.5 561,-1026.5 561,-1026.5 561,-1124.5 561,-1124.5 561,-1130.5 555,-1136.5 549,-1136.5 549,-1136.5 298,-1136.5 298,-1136.5 292,-1136.5 286,-1130.5 286,-1124.5 286,-1124.5 286,-1026.5 286,-1026.5 286,-1020.5 292,-1014.5 298,-1014.5"/>
<text text-anchor="middle" x="423.5" y="-1121.3" font-family="Times,serif" font-size="14.00">Turbo::Native::NavigationController</text>
<polyline fill="none" stroke="black" points="286,-1113.5 561,-1113.5 "/>
<text text-anchor="start" x="294" y="-1098.3" font-family="Times,serif" font-size="14.00">recede</text>
<text text-anchor="start" x="294" y="-1083.3" font-family="Times,serif" font-size="14.00">refresh</text>
<text text-anchor="start" x="294" y="-1068.3" font-family="Times,serif" font-size="14.00">resume</text>
<polyline fill="none" stroke="black" points="286,-1060.5 561,-1060.5 "/>
<text text-anchor="start" x="294" y="-1045.3" font-family="Times,serif" font-size="14.00">_layout_from_proc</text>
<polyline fill="none" stroke="black" points="286,-1037.5 561,-1037.5 "/>
<text text-anchor="start" x="294" y="-1022.3" font-family="Times,serif" font-size="14.00">_layout</text>
</g>
</g>
</svg>
