<?xml version="1.0" encoding="UTF-8" standalone="no"?>
<!DOCTYPE svg PUBLIC "-//W3C//DTD SVG 1.1//EN"
 "http://www.w3.org/Graphics/SVG/1.1/DTD/svg11.dtd">
<!-- Generated by graphviz version 2.43.0 (0)
 -->
<!-- Title: models_diagram Pages: 1 -->
<svg width="5614pt" height="158pt"
 viewBox="0.00 0.00 5614.00 158.00" xmlns="http://www.w3.org/2000/svg" xmlns:xlink="http://www.w3.org/1999/xlink">
<g id="graph0" class="graph" transform="scale(1 1) rotate(0) translate(4 154)">
<title>models_diagram</title>
<polygon fill="transparent" stroke="transparent" points="-4,4 -4,-154 5610,-154 5610,4 -4,4"/>
<!-- _diagram_info -->
<g id="node1" class="node">
<title>_diagram_info</title>
<text text-anchor="start" x="8" y="-135.6" font-family="Times,serif" font-size="13.00">Models diagram</text>
<text text-anchor="start" x="8" y="-121.6" font-family="Times,serif" font-size="13.00">Date: Mar 02 2021 &#45; 17:06</text>
<text text-anchor="start" x="8" y="-107.6" font-family="Times,serif" font-size="13.00">Migration version: 20210104160035</text>
<text text-anchor="start" x="8" y="-93.6" font-family="Times,serif" font-size="13.00">Generated by RailRoady 1.5.3</text>
<text text-anchor="start" x="8" y="-79.6" font-family="Times,serif" font-size="13.00">http://railroady.prestonlee.com</text>
</g>
<!-- ApplicationRecord -->
<g id="node2" class="node">
<title>ApplicationRecord</title>
<ellipse fill="none" stroke="black" cx="372.5" cy="-111" rx="95.58" ry="18"/>
<text text-anchor="middle" x="372.5" y="-107.3" font-family="Times,serif" font-size="14.00">ApplicationRecord</text>
</g>
<!-- Comment -->
<g id="node3" class="node">
<title>Comment</title>
<ellipse fill="none" stroke="black" cx="541.5" cy="-111" rx="55.79" ry="18"/>
<text text-anchor="middle" x="541.5" y="-107.3" font-family="Times,serif" font-size="14.00">Comment</text>
</g>
<!-- Ticket -->
<g id="node4" class="node">
<title>Ticket</title>
<ellipse fill="none" stroke="black" cx="654.5" cy="-111" rx="38.99" ry="18"/>
<text text-anchor="middle" x="654.5" y="-107.3" font-family="Times,serif" font-size="14.00">Ticket</text>
</g>
<!-- ActiveStorage::Filename -->
<g id="node5" class="node">
<title>ActiveStorage::Filename</title>
<polygon fill="none" stroke="black" points="903.5,-129 711.5,-129 711.5,-93 903.5,-93 903.5,-129"/>
<text text-anchor="middle" x="807.5" y="-107.3" font-family="Times,serif" font-size="14.00">ActiveStorage::Filename</text>
</g>
<!-- ActiveStorage::Blob::Representable -->
<g id="node6" class="node">
<title>ActiveStorage::Blob::Representable</title>
<polygon fill="none" stroke="black" stroke-dasharray="1,5" points="1193,-129 922,-129 922,-93 1193,-93 1193,-129"/>
<text text-anchor="middle" x="1057.5" y="-107.3" font-family="Times,serif" font-size="14.00">ActiveStorage::Blob::Representable</text>
</g>
<!-- ActiveStorage::Blob::Analyzable -->
<g id="node7" class="node">
<title>ActiveStorage::Blob::Analyzable</title>
<polygon fill="none" stroke="black" stroke-dasharray="1,5" points="1456,-129 1211,-129 1211,-93 1456,-93 1456,-129"/>
<text text-anchor="middle" x="1333.5" y="-107.3" font-family="Times,serif" font-size="14.00">ActiveStorage::Blob::Analyzable</text>
</g>
<!-- ActiveStorage::Blob::Identifiable -->
<g id="node8" class="node">
<title>ActiveStorage::Blob::Identifiable</title>
<polygon fill="none" stroke="black" stroke-dasharray="1,5" points="1722.5,-129 1474.5,-129 1474.5,-93 1722.5,-93 1722.5,-129"/>
<text text-anchor="middle" x="1598.5" y="-107.3" font-family="Times,serif" font-size="14.00">ActiveStorage::Blob::Identifiable</text>
</g>
<!-- ActiveStorage::Blob -->
<g id="node9" class="node">
<title>ActiveStorage::Blob</title>
<ellipse fill="none" stroke="black" cx="1843.5" cy="-111" rx="102.88" ry="18"/>
<text text-anchor="middle" x="1843.5" y="-107.3" font-family="Times,serif" font-size="14.00">ActiveStorage::Blob</text>
</g>
<!-- ActiveStorage::Attachment -->
<g id="node10" class="node">
<title>ActiveStorage::Attachment</title>
<ellipse fill="none" stroke="black" cx="2100.5" cy="-111" rx="135.68" ry="18"/>
<text text-anchor="middle" x="2100.5" y="-107.3" font-family="Times,serif" font-size="14.00">ActiveStorage::Attachment</text>
</g>
<!-- ActiveStorage::Preview -->
<g id="node11" class="node">
<title>ActiveStorage::Preview</title>
<polygon fill="none" stroke="black" points="2438.5,-129 2254.5,-129 2254.5,-93 2438.5,-93 2438.5,-129"/>
<text text-anchor="middle" x="2346.5" y="-107.3" font-family="Times,serif" font-size="14.00">ActiveStorage::Preview</text>
</g>
<!-- ActiveStorage::Variation -->
<g id="node12" class="node">
<title>ActiveStorage::Variation</title>
<polygon fill="none" stroke="black" points="2648,-129 2457,-129 2457,-93 2648,-93 2648,-129"/>
<text text-anchor="middle" x="2552.5" y="-107.3" font-family="Times,serif" font-size="14.00">ActiveStorage::Variation</text>
</g>
<!-- ActiveStorage::Variant -->
<g id="node13" class="node">
<title>ActiveStorage::Variant</title>
<polygon fill="none" stroke="black" points="2844.5,-129 2666.5,-129 2666.5,-93 2844.5,-93 2844.5,-129"/>
<text text-anchor="middle" x="2755.5" y="-107.3" font-family="Times,serif" font-size="14.00">ActiveStorage::Variant</text>
</g>
<!-- ActiveStorage::Current -->
<g id="node14" class="node">
<title>ActiveStorage::Current</title>
<polygon fill="none" stroke="black" points="3120.5,-36 2938.5,-36 2938.5,0 3120.5,0 3120.5,-36"/>
<text text-anchor="middle" x="3029.5" y="-14.3" font-family="Times,serif" font-size="14.00">ActiveStorage::Current</text>
</g>
<!-- ActionMailbox::InboundEmail::Routable -->
<g id="node15" class="node">
<title>ActionMailbox::InboundEmail::Routable</title>
<polygon fill="none" stroke="black" stroke-dasharray="1,5" points="3514.5,-129 3214.5,-129 3214.5,-93 3514.5,-93 3514.5,-129"/>
<text text-anchor="middle" x="3364.5" y="-107.3" font-family="Times,serif" font-size="14.00">ActionMailbox::InboundEmail::Routable</text>
</g>
<!-- ActionMailbox::InboundEmail::MessageId -->
<g id="node16" class="node">
<title>ActionMailbox::InboundEmail::MessageId</title>
<polygon fill="none" stroke="black" stroke-dasharray="1,5" points="3846.5,-129 3532.5,-129 3532.5,-93 3846.5,-93 3846.5,-129"/>
<text text-anchor="middle" x="3689.5" y="-107.3" font-family="Times,serif" font-size="14.00">ActionMailbox::InboundEmail::MessageId</text>
</g>
<!-- ActionMailbox::InboundEmail::Incineratable::Incineration -->
<g id="node17" class="node">
<title>ActionMailbox::InboundEmail::Incineratable::Incineration</title>
<polygon fill="none" stroke="black" points="4290.5,-129 3864.5,-129 3864.5,-93 4290.5,-93 4290.5,-129"/>
<text text-anchor="middle" x="4077.5" y="-107.3" font-family="Times,serif" font-size="14.00">ActionMailbox::InboundEmail::Incineratable::Incineration</text>
</g>
<!-- ActionMailbox::InboundEmail::Incineratable -->
<g id="node18" class="node">
<title>ActionMailbox::InboundEmail::Incineratable</title>
<polygon fill="none" stroke="black" stroke-dasharray="1,5" points="4640,-129 4309,-129 4309,-93 4640,-93 4640,-129"/>
<text text-anchor="middle" x="4474.5" y="-107.3" font-family="Times,serif" font-size="14.00">ActionMailbox::InboundEmail::Incineratable</text>
</g>
<!-- ActionMailbox::InboundEmail -->
<g id="node19" class="node">
<title>ActionMailbox::InboundEmail</title>
<ellipse fill="none" stroke="black" cx="4805.5" cy="-111" rx="147.57" ry="18"/>
<text text-anchor="middle" x="4805.5" y="-107.3" font-family="Times,serif" font-size="14.00">ActionMailbox::InboundEmail</text>
</g>
<!-- ActionText::RichText -->
<g id="node20" class="node">
<title>ActionText::RichText</title>
<ellipse fill="none" stroke="black" cx="5077.5" cy="-111" rx="106.68" ry="18"/>
<text text-anchor="middle" x="5077.5" y="-107.3" font-family="Times,serif" font-size="14.00">ActionText::RichText</text>
</g>
<!-- Turbo::Broadcastable -->
<g id="node21" class="node">
<title>Turbo::Broadcastable</title>
<polygon fill="none" stroke="black" stroke-dasharray="1,5" points="5372.5,-129 5202.5,-129 5202.5,-93 5372.5,-93 5372.5,-129"/>
<text text-anchor="middle" x="5287.5" y="-107.3" font-family="Times,serif" font-size="14.00">Turbo::Broadcastable</text>
</g>
<!-- Turbo::Streams::TagBuilder -->
<g id="node22" class="node">
<title>Turbo::Streams::TagBuilder</title>
<polygon fill="none" stroke="black" points="5606,-129 5391,-129 5391,-93 5606,-93 5606,-129"/>
<text text-anchor="middle" x="5498.5" y="-107.3" font-family="Times,serif" font-size="14.00">Turbo::Streams::TagBuilder</text>
</g>
<!-- ActiveSupport::CurrentAttributes -->
<g id="node23" class="node">
<title>ActiveSupport::CurrentAttributes</title>
<ellipse fill="none" stroke="black" cx="3029.5" cy="-111" rx="167.07" ry="18"/>
<text text-anchor="middle" x="3029.5" y="-107.3" font-family="Times,serif" font-size="14.00">ActiveSupport::CurrentAttributes</text>
</g>
<!-- ActiveSupport::CurrentAttributes&#45;&gt;ActiveStorage::Current -->
<g id="edge1" class="edge">
<title>ActiveSupport::CurrentAttributes&#45;&gt;ActiveStorage::Current</title>
<path fill="none" stroke="black" d="M3029.5,-92.88C3029.5,-76.61 3029.5,-52.28 3029.5,-36.04"/>
</g>
</g>
</svg>
